<svg id="Layer_1" enable-background="new 0 0 512 512" height="512" viewBox="0 0 512 512" width="512" xmlns="http://www.w3.org/2000/svg"><g><path d="m415.638 102.983c-8.25-.751-14.33-8.048-13.579-16.298 4.411-48.468 44.977-86.685 94.933-86.685 8.284 0 15.008 6.716 15.008 15s-6.708 15-14.992 15c-34.767 0-62.096 26.701-65.072 59.404-.751 8.247-8.043 14.329-16.298 13.579z" fill="#41d76c"/><path d="m191.713 512c-105.993 0-191.713-85.656-191.713-191.71 0-100.714 76.596-180.672 171.51-190.65 38.451-4.169 74.682-21.526 102.023-48.874 42.453-42.497 113.26-44.299 157.63.071 43.531 43.522 43.539 114.019 0 157.558-27.366 27.366-44.73 63.631-48.894 102.116-9.782 95.206-90.239 171.489-190.556 171.489z" fill="#00b464"/><path d="m191.713 512c100.317 0 180.773-76.283 190.556-171.49 4.164-38.485 21.528-74.75 48.894-102.116 43.538-43.538 43.531-114.034.001-157.557l-375.067 375.066c34.68 34.678 82.613 56.097 135.616 56.097z" fill="#009682"/><path d="m174.71 159.468c-.016.001-.032.003-.048.005-80.157 8.419-144.662 75.945-144.662 160.817 0 89.405 72.231 161.71 161.713 161.71 84.634 0 152.469-64.333 160.722-144.637.197-1.818 4.016-66.691 57.517-120.192 31.698-31.691 31.898-83.229 0-115.121-31.74-31.74-83.383-31.741-115.124-.001-53.091 53.091-117.985 57.188-120.118 57.419z" fill="#82fa73"/><path d="m173.096 144.555h.01z"/><path d="m352.435 337.363c.197-1.818 4.016-66.691 57.517-120.192 31.698-31.691 31.898-83.229 0-115.121l-332.637 332.635c29.242 29.244 69.664 47.315 114.398 47.315 84.635 0 152.47-64.333 160.722-144.637z" fill="#41d76c"/><circle cx="191.71" cy="320.29" fill="#c78a42" r="95.339"/><path d="m259.126 387.705c37.173-37.173 37.173-97.657.001-134.83l-134.83 134.83c37.171 37.172 97.656 37.172 134.829 0z" fill="#9c6114"/></g></svg>